<svg width="909" height="371" viewBox="0 0 909 371" fill="none" xmlns="http://www.w3.org/2000/svg">
<path d="M195.465 251.137V346H173.902V281.957L165.289 346H149.996L140.914 283.422V346H119.352V251.137H151.285C152.223 256.84 153.219 263.559 154.273 271.293L157.672 295.434L163.297 251.137H195.465ZM261.877 308.5H231.233V325.316C231.233 328.832 231.487 331.098 231.995 332.113C232.502 333.129 233.479 333.637 234.924 333.637C236.721 333.637 237.912 332.973 238.498 331.645C239.123 330.277 239.436 327.66 239.436 323.793V313.539H261.877V319.281C261.877 324.086 261.565 327.777 260.94 330.355C260.354 332.934 258.948 335.688 256.721 338.617C254.495 341.547 251.662 343.754 248.225 345.238C244.827 346.684 240.549 347.406 235.393 347.406C230.393 347.406 225.979 346.684 222.151 345.238C218.323 343.793 215.334 341.82 213.186 339.32C211.077 336.781 209.612 334.008 208.791 331C207.971 327.953 207.561 323.539 207.561 317.758V295.082C207.561 288.285 208.479 282.934 210.315 279.027C212.151 275.082 215.159 272.074 219.338 270.004C223.518 267.895 228.323 266.84 233.752 266.84C240.393 266.84 245.862 268.109 250.159 270.648C254.495 273.148 257.522 276.488 259.241 280.668C260.998 284.809 261.877 290.648 261.877 298.188V308.5ZM238.147 295.844V290.16C238.147 286.137 237.932 283.539 237.502 282.367C237.073 281.195 236.194 280.609 234.866 280.609C233.225 280.609 232.209 281.117 231.819 282.133C231.428 283.109 231.233 285.785 231.233 290.16V295.844H238.147ZM325.595 297.602H303.27V288.637C303.27 285.512 303.016 283.402 302.509 282.309C302.001 281.176 301.063 280.609 299.696 280.609C298.329 280.609 297.411 281.098 296.942 282.074C296.473 283.051 296.239 285.238 296.239 288.637V325.316C296.239 328.09 296.591 330.18 297.294 331.586C297.997 332.953 299.032 333.637 300.399 333.637C302.001 333.637 303.075 332.914 303.622 331.469C304.208 330.023 304.501 327.289 304.501 323.266V314.008H325.595C325.555 320.219 325.321 324.887 324.891 328.012C324.501 331.098 323.192 334.281 320.966 337.562C318.778 340.805 315.907 343.266 312.352 344.945C308.798 346.586 304.403 347.406 299.169 347.406C292.489 347.406 287.196 346.273 283.29 344.008C279.384 341.703 276.61 338.5 274.97 334.398C273.368 330.258 272.567 324.398 272.567 316.82V294.73C272.567 288.129 273.231 283.148 274.559 279.789C275.887 276.43 278.72 273.441 283.055 270.824C287.391 268.168 292.665 266.84 298.876 266.84C305.048 266.84 310.321 268.148 314.696 270.766C319.071 273.383 321.981 276.684 323.427 280.668C324.872 284.652 325.595 290.297 325.595 297.602ZM359.956 251.137V272.465C361.988 270.59 364.175 269.184 366.519 268.246C368.902 267.309 371.441 266.84 374.136 266.84C378.277 266.84 381.792 267.895 384.683 270.004C387.613 272.113 389.39 274.555 390.015 277.328C390.679 280.062 391.011 285.082 391.011 292.387V346H367.339V291.273C367.339 286.742 367.105 283.832 366.636 282.543C366.206 281.254 365.21 280.609 363.648 280.609C362.202 280.609 361.226 281.273 360.718 282.602C360.21 283.93 359.956 286.566 359.956 290.512V346H336.284V251.137H359.956ZM423.966 298.363H401.759V293.148C401.759 287.133 402.443 282.504 403.81 279.262C405.216 275.98 408.009 273.09 412.189 270.59C416.369 268.09 421.798 266.84 428.478 266.84C436.486 266.84 442.521 268.266 446.584 271.117C450.646 273.93 453.087 277.406 453.908 281.547C454.728 285.648 455.138 294.125 455.138 306.977V346H432.111V339.086C430.666 341.859 428.791 343.949 426.486 345.355C424.22 346.723 421.505 347.406 418.341 347.406C414.201 347.406 410.392 346.254 406.916 343.949C403.478 341.605 401.759 336.508 401.759 328.656V322.27C401.759 316.449 402.677 312.484 404.513 310.375C406.349 308.266 410.9 305.805 418.166 302.992C425.939 299.945 430.099 297.895 430.646 296.84C431.193 295.785 431.466 293.637 431.466 290.395C431.466 286.332 431.154 283.695 430.529 282.484C429.943 281.234 428.947 280.609 427.541 280.609C425.939 280.609 424.943 281.137 424.552 282.191C424.162 283.207 423.966 285.883 423.966 290.219V298.363ZM431.466 309.027C427.677 311.801 425.47 314.125 424.845 316C424.259 317.875 423.966 320.57 423.966 324.086C423.966 328.109 424.22 330.707 424.728 331.879C425.275 333.051 426.33 333.637 427.892 333.637C429.377 333.637 430.334 333.188 430.763 332.289C431.232 331.352 431.466 328.93 431.466 325.023V309.027ZM492.254 251.137V327.016H507.254V346H467.586V251.137H492.254ZM569.799 308.5H539.155V325.316C539.155 328.832 539.409 331.098 539.916 332.113C540.424 333.129 541.401 333.637 542.846 333.637C544.643 333.637 545.834 332.973 546.42 331.645C547.045 330.277 547.358 327.66 547.358 323.793V313.539H569.799V319.281C569.799 324.086 569.487 327.777 568.862 330.355C568.276 332.934 566.87 335.688 564.643 338.617C562.416 341.547 559.584 343.754 556.147 345.238C552.748 346.684 548.471 347.406 543.315 347.406C538.315 347.406 533.901 346.684 530.073 345.238C526.245 343.793 523.256 341.82 521.108 339.32C518.998 336.781 517.534 334.008 516.713 331C515.893 327.953 515.483 323.539 515.483 317.758V295.082C515.483 288.285 516.401 282.934 518.237 279.027C520.073 275.082 523.08 272.074 527.26 270.004C531.44 267.895 536.245 266.84 541.674 266.84C548.315 266.84 553.784 268.109 558.08 270.648C562.416 273.148 565.444 276.488 567.163 280.668C568.92 284.809 569.799 290.648 569.799 298.188V308.5ZM546.069 295.844V290.16C546.069 286.137 545.854 283.539 545.424 282.367C544.995 281.195 544.116 280.609 542.788 280.609C541.147 280.609 540.131 281.117 539.741 282.133C539.35 283.109 539.155 285.785 539.155 290.16V295.844H546.069ZM602.345 298.363H580.138V293.148C580.138 287.133 580.821 282.504 582.188 279.262C583.595 275.98 586.388 273.09 590.567 270.59C594.747 268.09 600.177 266.84 606.856 266.84C614.864 266.84 620.899 268.266 624.962 271.117C629.024 273.93 631.466 277.406 632.286 281.547C633.106 285.648 633.516 294.125 633.516 306.977V346H610.489V339.086C609.044 341.859 607.169 343.949 604.864 345.355C602.598 346.723 599.884 347.406 596.72 347.406C592.579 347.406 588.77 346.254 585.294 343.949C581.856 341.605 580.138 336.508 580.138 328.656V322.27C580.138 316.449 581.055 312.484 582.891 310.375C584.727 308.266 589.278 305.805 596.544 302.992C604.317 299.945 608.477 297.895 609.024 296.84C609.571 295.785 609.845 293.637 609.845 290.395C609.845 286.332 609.532 283.695 608.907 282.484C608.321 281.234 607.325 280.609 605.919 280.609C604.317 280.609 603.321 281.137 602.93 282.191C602.54 283.207 602.345 285.883 602.345 290.219V298.363ZM609.845 309.027C606.055 311.801 603.848 314.125 603.223 316C602.638 317.875 602.345 320.57 602.345 324.086C602.345 328.109 602.598 330.707 603.106 331.879C603.653 333.051 604.708 333.637 606.27 333.637C607.755 333.637 608.712 333.188 609.141 332.289C609.61 331.352 609.845 328.93 609.845 325.023V309.027ZM699.05 268.246V328.129C699.05 336.215 698.855 341.449 698.464 343.832C698.112 346.176 696.804 348.656 694.538 351.273C692.273 353.93 689.109 355.941 685.046 357.309C681.023 358.715 675.945 359.418 669.812 359.418C662.273 359.418 656.218 358.129 651.648 355.551C647.077 353.012 644.714 347.992 644.558 340.492H667.527C667.527 343.93 668.777 345.648 671.277 345.648C673.073 345.648 674.265 345.121 674.851 344.066C675.437 343.012 675.73 340.805 675.73 337.445V331.586C673.698 333.422 671.55 334.809 669.284 335.746C667.058 336.684 664.714 337.152 662.253 337.152C657.995 337.152 654.48 336.293 651.706 334.574C648.972 332.855 647.097 330.609 646.081 327.836C645.066 325.023 644.558 321.039 644.558 315.883V287.641C644.558 280.258 645.886 274.945 648.542 271.703C651.198 268.461 655.241 266.84 660.671 266.84C663.64 266.84 666.335 267.445 668.757 268.656C671.218 269.867 673.405 271.684 675.32 274.105L677.019 268.246H699.05ZM675.32 288.871C675.32 285.316 675.105 283.051 674.675 282.074C674.284 281.098 673.386 280.609 671.98 280.609C670.612 280.609 669.636 281.176 669.05 282.309C668.503 283.402 668.23 285.59 668.23 288.871V315.004C668.23 318.48 668.445 320.746 668.874 321.801C669.304 322.816 670.202 323.324 671.57 323.324C673.132 323.324 674.148 322.699 674.616 321.449C675.085 320.199 675.32 317.367 675.32 312.953V288.871ZM765.287 268.246V346H741.205L741.615 339.555C739.974 342.172 737.943 344.145 735.521 345.473C733.138 346.762 730.384 347.406 727.259 347.406C723.705 347.406 720.755 346.781 718.412 345.531C716.068 344.281 714.33 342.621 713.197 340.551C712.103 338.48 711.42 336.332 711.146 334.105C710.873 331.84 710.736 327.367 710.736 320.688V268.246H734.408V321.156C734.408 327.211 734.584 330.805 734.935 331.938C735.326 333.07 736.341 333.637 737.982 333.637C739.74 333.637 740.775 333.051 741.088 331.879C741.439 330.707 741.615 326.938 741.615 320.57V268.246H765.287ZM830.996 308.5H800.352V325.316C800.352 328.832 800.605 331.098 801.113 332.113C801.621 333.129 802.598 333.637 804.043 333.637C805.84 333.637 807.031 332.973 807.617 331.645C808.242 330.277 808.555 327.66 808.555 323.793V313.539H830.996V319.281C830.996 324.086 830.684 327.777 830.059 330.355C829.473 332.934 828.066 335.688 825.84 338.617C823.613 341.547 820.781 343.754 817.344 345.238C813.945 346.684 809.668 347.406 804.512 347.406C799.512 347.406 795.098 346.684 791.27 345.238C787.441 343.793 784.453 341.82 782.305 339.32C780.195 336.781 778.73 334.008 777.91 331C777.09 327.953 776.68 323.539 776.68 317.758V295.082C776.68 288.285 777.598 282.934 779.434 279.027C781.27 275.082 784.277 272.074 788.457 270.004C792.637 267.895 797.441 266.84 802.871 266.84C809.512 266.84 814.98 268.109 819.277 270.648C823.613 273.148 826.641 276.488 828.359 280.668C830.117 284.809 830.996 290.648 830.996 298.188V308.5ZM807.266 295.844V290.16C807.266 286.137 807.051 283.539 806.621 282.367C806.191 281.195 805.312 280.609 803.984 280.609C802.344 280.609 801.328 281.117 800.938 282.133C800.547 283.109 800.352 285.785 800.352 290.16V295.844H807.266Z" fill="url(#paint0_linear_125_25)"/>
<path d="M391.035 225C380.486 225 371.286 221.66 363.433 214.98C355.581 208.301 350.951 199.688 349.545 189.141C340.637 184.453 333.605 177.773 328.448 169.102C323.291 160.43 320.713 150.938 320.713 140.625C320.713 128.203 324.287 117.129 331.437 107.402C338.586 97.6758 348.138 90.9375 360.093 87.1875L334.777 61.875L330.558 66.0938C327.979 68.6719 324.698 69.9609 320.713 69.9609C316.728 69.9609 313.446 68.6719 310.868 66.0938C308.289 63.5156 307 60.2344 307 56.25C307 52.2656 308.289 48.9844 310.868 46.4062L338.996 18.2812C341.575 15.7031 344.857 14.4141 348.841 14.4141C352.826 14.4141 356.108 15.7031 358.687 18.2812C361.265 20.8594 362.554 24.1406 362.554 28.125C362.554 32.1094 361.265 35.3906 358.687 37.9688L354.467 42.1875L374.157 61.875L385.409 28.8281C388.222 20.1562 393.32 13.1836 400.704 7.91016C408.088 2.63672 416.35 0 425.492 0H497.22C506.362 0 514.625 2.63672 522.009 7.91016C529.393 13.1836 534.491 20.1562 537.304 28.8281L556.291 85.7812C569.652 88.3594 580.61 94.8047 589.166 105.117C597.722 115.43 602 127.266 602 140.625C602 150.938 599.422 160.43 594.265 169.102C589.108 177.773 582.075 184.453 573.168 189.141C571.762 199.688 567.132 208.301 559.279 214.98C551.427 221.66 542.226 225 531.678 225C522.771 225 514.742 222.422 507.593 217.266C500.444 212.109 495.345 205.312 492.298 196.875H430.415C427.368 205.312 422.269 212.109 415.12 217.266C407.97 222.422 399.942 225 391.035 225ZM396.66 84.375H447.292V28.125H425.492C422.445 28.125 419.749 29.0039 417.405 30.7617C415.061 32.5195 413.303 34.9219 412.131 37.9688L396.66 84.375ZM475.421 84.375H526.052L510.582 37.9688C509.41 34.9219 507.652 32.5195 505.308 30.7617C502.963 29.0039 500.268 28.125 497.22 28.125H475.421V84.375ZM430.415 168.75H492.298C495.345 160.312 500.444 153.516 507.593 148.359C514.742 143.203 522.771 140.625 531.678 140.625C538.71 140.625 545.274 142.266 551.368 145.547C557.463 148.828 562.62 153.281 566.839 158.906C568.949 156.328 570.648 153.457 571.937 150.293C573.227 147.129 573.871 143.906 573.871 140.625C573.871 132.891 571.117 126.27 565.608 120.762C560.1 115.254 553.478 112.5 545.743 112.5H376.97C369.235 112.5 362.613 115.254 357.104 120.762C351.596 126.27 348.841 132.891 348.841 140.625C348.841 143.906 349.486 147.129 350.775 150.293C352.065 153.457 353.764 156.328 355.874 158.906C360.093 153.281 365.25 148.828 371.344 145.547C377.439 142.266 384.002 140.625 391.035 140.625C399.942 140.625 407.97 143.203 415.12 148.359C422.269 153.516 427.368 160.312 430.415 168.75ZM391.035 196.875C395.019 196.875 398.36 195.527 401.055 192.832C403.751 190.137 405.099 186.797 405.099 182.812C405.099 178.828 403.751 175.488 401.055 172.793C398.36 170.098 395.019 168.75 391.035 168.75C387.05 168.75 383.709 170.098 381.014 172.793C378.318 175.488 376.97 178.828 376.97 182.812C376.97 186.797 378.318 190.137 381.014 192.832C383.709 195.527 387.05 196.875 391.035 196.875ZM531.678 196.875C535.663 196.875 539.003 195.527 541.699 192.832C544.395 190.137 545.743 186.797 545.743 182.812C545.743 178.828 544.395 175.488 541.699 172.793C539.003 170.098 535.663 168.75 531.678 168.75C527.693 168.75 524.353 170.098 521.657 172.793C518.962 175.488 517.614 178.828 517.614 182.812C517.614 186.797 518.962 190.137 521.657 192.832C524.353 195.527 527.693 196.875 531.678 196.875Z" fill="url(#paint1_linear_125_25)"/>
<defs>
<linearGradient id="paint0_linear_125_25" x1="114" y1="225" x2="170.8" y2="505.498" gradientUnits="userSpaceOnUse">
<stop stop-color="#40B3F3"/>
<stop offset="1" stop-color="#203C86"/>
</linearGradient>
<linearGradient id="paint1_linear_125_25" x1="307" y1="0" x2="523.991" y2="284.499" gradientUnits="userSpaceOnUse">
<stop stop-color="#40B3F3"/>
<stop offset="1" stop-color="#203C86"/>
</linearGradient>
</defs>
</svg>
